<svg width="17" height="9" viewBox="0 0 17 9" fill="none" xmlns="http://www.w3.org/2000/svg">
<path d="M1.54859 3.90755C1.75269 4.05157 2.36792 4.47932 3.39431 5.19058C4.42073 5.90183 5.20704 6.44948 5.75327 6.83355C5.81328 6.87565 5.94078 6.96717 6.13583 7.10823C6.33091 7.24938 6.493 7.36345 6.62198 7.45046C6.75106 7.53743 6.9071 7.635 7.09026 7.74301C7.27335 7.85093 7.44595 7.9321 7.60801 7.98584C7.7701 8.04001 7.92015 8.06685 8.05818 8.06685H8.06723H8.07631C8.21434 8.06685 8.36445 8.03998 8.52655 7.98584C8.68855 7.9321 8.8613 7.85083 9.04424 7.74301C9.22727 7.63488 9.38331 7.5374 9.51238 7.45046C9.64146 7.36345 9.80343 7.24938 9.99857 7.10823C10.1936 6.96704 10.3212 6.87565 10.3813 6.83355C10.9334 6.44948 12.3381 5.47405 14.5949 3.90736C15.033 3.60137 15.3991 3.23215 15.6932 2.79996C15.9875 2.36795 16.1345 1.91475 16.1345 1.44061C16.1345 1.0444 15.9918 0.705232 15.7067 0.423145C15.4216 0.140996 15.0839 0 14.6938 0H1.44052C0.978362 0 0.622703 0.156038 0.373603 0.468115C0.124534 0.780255 0 1.17041 0 1.63856C0 2.0167 0.165121 2.42648 0.495204 2.86763C0.825257 3.30882 1.1765 3.65549 1.54859 3.90755Z" fill="#A0ABC1"/>
</svg>
